<svg id="图层_1" data-name="图层 1" xmlns="http://www.w3.org/2000/svg" viewBox="0 0 117.3 61.96"><defs><style>.cls-1{fill:#e60012;}</style></defs><path d="M91.67,87.32l3.37,0,4.39,0,5.8,0,2.51,0V84.7H105.6c-1.28,0-2.86,0-4.73,0H97.45l-2.7,0c0-1,0-2.12,0-3.52s0-3.28,0-5.66H99l5.42,0,3.11,0V73l-2.78,0q-2.61,0-5.94,0H94.69c0-1.26,0-2.6,0-4s0-2.84,0-4.26H99.7q3.24,0,5.43,0l2.36,0V62.13l-2.45,0c-1.51,0-3.47,0-5.87,0-1.42,0-2.81,0-4.15,0l-3.35,0q.06,3.76.08,7.27c0,2.34,0,4.23,0,5.65q0,3.89,0,7.53C91.72,85,91.7,86.59,91.67,87.32Z" transform="translate(-13.14 -39.99)"/><path d="M122.87,73.68c-1-.57-1.94-1.09-2.92-1.61-.51-.26-1.07-.51-1.58-.82a3.56,3.56,0,0,1-1-.94,3.29,3.29,0,0,1-.1-3.7,3.88,3.88,0,0,1,1.28-1.21,6.66,6.66,0,0,1,2-.73,11.15,11.15,0,0,1,2.18-.23c1.19,0,2.18,0,3,.11l1.38.13L126.77,62c-.11,0-.57-.05-1.37-.09s-1.59-.06-2.37-.06a15.62,15.62,0,0,0-3.89.45,8.33,8.33,0,0,0-3,1.36,7.31,7.31,0,0,0-1.93,2.18,6.2,6.2,0,0,0,.07,6.1,7.79,7.79,0,0,0,2.75,2.55c4.35,2.65,9.07,5.32,6.09,11-3.27,6.3-11.87,9.64-18.38,11.07A173.22,173.22,0,0,1,85.25,99.5c-5.37.53-11.62,1.08-18.82,1.11,6.12,1.32,16,1.58,24,1.12a124.64,124.64,0,0,0,15-1.77c5.06-.91,10.19-2,14.84-4.25s10.27-6.28,10.17-12.07C130.36,78.93,126.57,75.92,122.87,73.68Z" transform="translate(-13.14 -39.99)"/><path d="M67.17,64.4c0,2.88.09,5.68.09,7v3.49c0,3.23,0,5.94,0,8.11s0,3.63,0,4.39h3.11c0-.76,0-2.62,0-5.58s0-5.3,0-7c0-.75,0-2,0-3.87s0-3.94,0-6.33h1.57c.68,0,1.42,0,2.23.09a7.75,7.75,0,0,1,2.3.5,4.4,4.4,0,0,1,2.11,1.54,4.12,4.12,0,0,1,.76,2.5,5.21,5.21,0,0,1-.52,2.53,6,6,0,0,1-1.22,1.59,9.58,9.58,0,0,1-2,1.37,9.22,9.22,0,0,1-1.91.82v.17q5.27,6,7.79,8.87t2.94,3.28l2.36-1.94q-.22-.25-3.31-3.46t-5.68-6.24v-.09a14.38,14.38,0,0,0,3.12-2.65A6.32,6.32,0,0,0,82.44,69a6.08,6.08,0,0,0-1.09-3.62,6.88,6.88,0,0,0-3-2.33,11.55,11.55,0,0,0-3-.81A27.48,27.48,0,0,0,72.18,62c-1,0-2,0-3.13,0l-1.88,0c0,.82,0,1.59,0,2.32" transform="translate(-13.14 -39.99)"/><path class="cls-1" d="M57.53,65.71s6-.55,9.68-.58v-.74c-1.94-.09-3.1-.11-5.9-.27A88.75,88.75,0,0,0,27.67,68.3c-4.37,1.48-8.57,3.41-11.85,6.87-3.72,3.93-3.55,8.61.38,12.35S25.34,93.24,30.54,95a64,64,0,0,1-5.67-4.67c-2.25-2.3-3.63-5.07-2.71-8.47.69-2.54,1.13-2.9,3.72-2.9H65.05l-7.3-12.73C57.69,66.06,57.55,65.79,57.53,65.71ZM30.78,73.24a.67.67,0,0,1,.22-.36A12.38,12.38,0,0,1,32.47,72a40,40,0,0,1,5.7-2.37,66.13,66.13,0,0,1,8.42-2.25c1.23-.25,2.47-.47,3.71-.68a1.67,1.67,0,0,1,1.39.48c1.18,1.84,2.23,3.77,3.57,6.09Z" transform="translate(-13.14 -39.99)"/><path class="cls-1" d="M37.68,61.08c1.57-2.94,3.29-5.79,5.09-8.91.48.76,4.37,7.14,5.66,8.87a2.39,2.39,0,0,0,2,1.27c1.23,0,4,0,5.29,0L42.82,40,28.63,64.56c2.07-.39,4.44-.85,6.34-1.18S36.85,62.63,37.68,61.08Z" transform="translate(-13.14 -39.99)"/></svg>